# xmcd
#
# Track frame offsets:
#	150
#	16510
#	34719
#	47996
#	71837
# Disc length: 1104 seconds
# Revision: 1
# Processed by: cddbd v1.5.2PL0 Copyright (c) Steve Scherf et al.
#
# Submitted via: libkcddb 0.31
#
DISCID=39044e05
DTITLE=Mike Rodbard - Mike Rodbard's Chicago Blues, Vol. 1
DYEAR=2014
DGENRE=Blues
TTITLE0=Feel So Good
TTITLE1=Hip Shake Boogie
TTITLE2=Snatch it Back and Hold It
TTITLE3=Champagne and Reefer
TTITLE4=Diamonds at Her Feet
EXTD=
EXTT0=
EXTT1=
EXTT2=
EXTT3=
EXTT4=
PLAYORDER=
